# xmcd
# 
# Track frame offsets:
#     150
#     18409
#     34321
#     50347
#     68371
#     86613
#     107524
#     124790
#     140261
#     161209
#     178644
#     199421
# 
# Disc length: 2922
# 
# Revision: 0
# Processed by: cddbd v1.5.2PL0 Copyright (c) Steve Scherf et al.
# Submitted via: fre:ac v1.0.27
# 
DISCID=9f0b680c
DTITLE=Phil Coulter - Country Serenity
DYEAR=2006
DGENRE=Acoustic
TTITLE0=If Tomorrow Never Comes
TTITLE1=We've Got Tonight
TTITLE2=Always On My Mind
TTITLE3=You Raise Me Up
TTITLE4=Amazed
TTITLE5=Sometimes When We Touch
TTITLE6=The Long Goodbye
TTITLE7=From A Distance
TTITLE8=Love Can Build A Bridge
TTITLE9=To All The Girls I've Loved Before
TTITLE10=In The Arms Of An Angel
TTITLE11=Desperado
EXTD=YEAR: 2006
EXTT0=
EXTT1=
EXTT2=
EXTT3=
EXTT4=
EXTT5=
EXTT6=
EXTT7=
EXTT8=
EXTT9=
EXTT10=
EXTT11=
PLAYORDER=
